<svg width="258" height="42" viewBox="0 0 258 42" fill="none" xmlns="http://www.w3.org/2000/svg">
<path fill-rule="evenodd" clip-rule="evenodd" d="M19.4235 0.0395224C16.3756 0.331371 14.0588 0.979247 11.5269 2.24792C8.19466 3.91751 5.10484 6.75014 3.07271 9.99856C1.6056 12.3436 0.535267 15.3758 0.103077 18.4109C-0.0343591 19.3762 -0.0343591 22.6162 0.103077 23.5815C0.447285 25.9989 1.08682 28.1165 2.08601 30.1472C3.21647 32.4448 4.32376 33.9883 6.15184 35.8147C7.95996 37.6211 9.52902 38.7491 11.7425 39.8339C13.287 40.5908 14.2843 40.9593 15.85 41.3516C19.9587 42.3812 24.0794 42.1838 28.0935 40.7651C29.3103 40.3351 31.4344 39.2715 32.5264 38.5456C35.5247 36.5523 38.0026 33.8001 39.6432 30.6407C41.1276 27.7822 41.8703 24.946 41.9862 21.6938C42.1109 18.1935 41.3904 14.8622 39.8317 11.7309C38.8081 9.6747 37.6686 8.06321 36.0686 6.40922C34.2944 4.57491 32.5542 3.30936 30.2262 2.16018C27.7929 0.959058 25.5256 0.317911 22.8327 0.0693145C21.9958 -0.00791528 20.0931 -0.0245759 19.4235 0.0395224ZM26.5514 11.6129L26.5734 13.6787L25.0727 13.7058C22.8037 13.7467 22.7917 13.759 22.7917 16.0282V17.4671H24.7222C25.784 17.4671 26.6527 17.4781 26.6527 17.4916C26.6527 17.505 26.5603 18.3952 26.4473 19.4698C26.3344 20.5442 26.242 21.4935 26.242 21.5792C26.242 21.7271 26.1561 21.7349 24.5168 21.7349H22.7917V27.8082V33.8815H20.245H17.6984V27.8082V21.7349H16.5072H15.3161V19.601V17.4671H16.4977H17.6793L17.7194 15.5589C17.7649 13.3987 17.8503 12.9358 18.394 11.9022C19.0698 10.6173 20.308 9.80232 21.9013 9.59378C22.1877 9.55627 23.3462 9.53042 24.4757 9.53633L26.5295 9.54716L26.5514 11.6129Z" fill="#F8F0E3"/>
<path fill-rule="evenodd" clip-rule="evenodd" d="M171.904 0.0212815C169.363 0.295257 167.04 1.42584 165.205 3.2831C163.572 4.93452 162.636 6.68619 162.147 9.00586C162.01 9.65792 162 10.4555 162 21.0036C162 31.5516 162.01 32.3492 162.147 33.0013C162.637 35.3235 163.576 37.0789 165.205 38.7203C166.859 40.3869 168.656 41.3581 171 41.8524C171.652 41.9898 172.449 41.9996 183 41.9996C195.621 41.9996 194.787 42.0354 196.581 41.4156C198.197 40.8571 199.42 40.0839 200.724 38.7956C202.378 37.1611 203.358 35.3461 203.852 33.0013C203.99 32.3492 204 31.5521 204 21.0036C204 8.47459 204.033 9.30547 203.458 7.55725C202.911 5.89236 202.094 4.5902 200.755 3.25171C199.129 1.62635 197.5 0.7266 195.205 0.187853C194.473 0.0158578 194.356 0.0140499 183.329 0.00221657C177.203 -0.00435753 172.062 0.00418879 171.904 0.0212815ZM191.096 7.59119C193.746 8.3353 195.717 10.3201 196.417 12.9503L196.602 13.6488V21.0036V28.3584L196.417 29.0569C195.711 31.7074 193.706 33.7126 191.055 34.4179L190.356 34.6038H183C176.256 34.6038 175.597 34.5918 175.082 34.4596C172.345 33.7568 170.299 31.7463 169.583 29.0569L169.397 28.3584V21.0036V13.6488L169.583 12.9503C170.335 10.1249 172.6 8.00725 175.425 7.48954C175.94 7.3952 177.369 7.37704 183.246 7.39035C190.427 7.40662 190.439 7.40687 191.096 7.59119ZM175.537 9.99378C174.637 10.2295 174 10.6023 173.298 11.304C172.587 12.0158 172.222 12.6463 171.984 13.5745C171.829 14.1815 171.822 14.5064 171.822 21.0036C171.822 27.5008 171.829 27.8257 171.984 28.4326C172.222 29.3609 172.587 29.9914 173.298 30.7032C174.01 31.415 174.641 31.7798 175.569 32.0173C176.176 32.1725 176.501 32.1796 183 32.1796C189.498 32.1796 189.823 32.1725 190.43 32.0173C191.359 31.7798 191.989 31.415 192.701 30.7032C193.413 29.9914 193.778 29.3609 194.015 28.4326C194.171 27.8257 194.178 27.5008 194.178 21.0036C194.178 14.5064 194.171 14.1815 194.015 13.5745C193.778 12.6463 193.413 12.0158 192.701 11.304C191.989 10.5922 191.359 10.2274 190.43 9.98992C189.822 9.83452 189.506 9.82778 182.966 9.83214C176.514 9.83641 176.104 9.84537 175.537 9.99378ZM190.646 12.8692C191.01 13.0553 191.301 13.5287 191.301 13.9364C191.301 14.5617 190.694 15.1691 190.068 15.1691C189.66 15.1691 189.187 14.8784 189.001 14.5138C188.688 13.9001 188.871 13.2552 189.459 12.899C189.853 12.6608 190.219 12.6516 190.646 12.8692ZM184.206 14.9693C185.438 15.2236 186.468 15.7831 187.349 16.6763C188.156 17.4936 188.675 18.3869 188.976 19.4752C189.166 20.1628 189.166 21.8444 188.976 22.532C188.341 24.8301 186.511 26.562 184.215 27.036C179.95 27.9169 176.09 24.058 176.965 19.788C177.646 16.467 180.918 14.2901 184.206 14.9693ZM182.133 17.4203C181.453 17.5856 180.933 17.8833 180.405 18.4101C178.946 19.8659 178.946 22.1437 180.405 23.5958C181.871 25.0553 184.141 25.0563 185.592 23.5981C187.052 22.1319 187.053 19.8673 185.595 18.4091C184.657 17.4712 183.401 17.1125 182.133 17.4203Z" fill="#F8F0E3"/>
<path fill-rule="evenodd" clip-rule="evenodd" d="M127.039 0.0487652C119.902 0.737177 113.527 5.05852 110.297 11.3981C109.154 13.6403 108.479 15.8022 108.11 18.4018C107.946 19.5547 107.97 22.5371 108.153 23.8224C108.478 26.1049 109.152 28.2678 110.184 30.3456C112.232 34.4678 115.503 37.7363 119.637 39.7903C126.338 43.1199 134.257 42.6621 140.507 38.5837C142.951 36.9891 145.267 34.6251 146.848 32.1114C147.449 31.156 148.356 29.2987 148.768 28.1806C149.184 27.0538 149.668 25.0982 149.847 23.8224C150.029 22.5301 150.054 19.5404 149.892 18.4018C149.407 14.9912 148.324 12.0876 146.528 9.37584C145.763 8.22257 145 7.29212 143.937 6.21745C140.659 2.90434 136.581 0.849531 131.918 0.161201C130.913 0.0127923 128.087 -0.0523366 127.039 0.0487652ZM126.744 17.0135C128.366 20.5638 129.706 23.4373 129.721 23.3991C129.736 23.3609 130.902 20.4653 132.312 16.9645L134.877 10.5995L138.514 10.5781L142.151 10.5567V10.7968C142.151 10.999 141.969 11.2088 141 12.1247L139.85 13.2124V20.9877V28.7628L140.959 29.8529C141.878 30.7556 142.069 30.9839 142.069 31.1811V31.4194H136.932H131.795V31.1872C131.795 30.9972 132.004 30.7502 132.946 29.8266L134.096 28.6981L134.092 22.6055L134.087 16.5128L133.041 19.141C132.466 20.5865 131.146 23.9218 130.108 26.553L128.22 31.3367L127.809 31.3363L127.398 31.3358L123.987 23.9048L120.576 16.4737L120.552 21.5853C120.54 24.3967 120.55 26.8147 120.576 26.9586C120.608 27.1389 121.094 27.7902 122.138 29.0529C123.279 30.4334 123.654 30.9412 123.656 31.1114L123.658 31.3373H119.754H115.85V31.1337C115.85 30.9908 116.282 30.4093 117.298 29.1831C118.095 28.2222 118.798 27.3172 118.86 27.1718C118.953 26.9551 118.973 25.8006 118.973 20.7505C118.973 17.3543 118.94 14.5082 118.9 14.4033C118.86 14.2988 118.231 13.4946 117.503 12.6163C116.487 11.3905 116.179 10.9657 116.179 10.7889V10.5584H119.987H123.794L126.744 17.0135Z" fill="#F8F0E3"/>
<path fill-rule="evenodd" clip-rule="evenodd" d="M220.932 0.0255737C219.558 0.219583 218.22 0.966038 217.295 2.05482C216.86 2.567 216.349 3.54535 216.152 4.24053C216.008 4.75058 216.001 5.50541 216.001 21.0037C216.001 39.2611 215.944 37.609 216.626 38.9234C217.19 40.0091 217.991 40.8099 219.077 41.3738C220.392 42.0564 218.739 41.9988 237 41.9988C255.261 41.9988 253.608 42.0564 254.923 41.3738C256.009 40.8099 256.81 40.0091 257.374 38.9234C258.056 37.609 257.999 39.2611 257.999 21.0037C257.999 2.74433 258.057 4.39879 257.373 3.08214C256.63 1.65275 255.401 0.646387 253.807 0.162309C253.338 0.0198216 252.539 0.0120974 237.247 0.00166147C228.409 -0.00433712 221.068 0.00642747 220.932 0.0255737ZM228.636 8.02679C229.969 8.47595 230.84 9.50351 231.085 10.918C231.386 12.6501 230.201 14.4522 228.452 14.9231C227.862 15.0819 226.912 15.0412 226.351 14.8331C224.137 14.0116 223.253 11.4537 224.508 9.49842C224.792 9.05617 225.381 8.4955 225.781 8.28572C226.636 7.83821 227.77 7.73533 228.636 8.02679ZM245.547 16.471C248 17.111 249.279 18.704 249.882 21.8665C249.984 22.4016 250.014 23.5598 250.043 28.0918L250.079 33.6597L249.833 33.9055L249.587 34.1513H247.24H244.893L244.624 33.9116L244.356 33.6719L244.312 28.591C244.263 23.0054 244.28 23.1956 243.738 22.2557C243.265 21.4359 242.413 21.0363 241.281 21.1032C240.898 21.1259 240.508 21.2064 240.271 21.3119C239.525 21.6437 238.921 22.4487 238.582 23.5618C238.466 23.9407 238.441 24.686 238.402 28.8375L238.356 33.6719L238.088 33.9116L237.819 34.1513H235.554H233.289L233.049 33.9111L232.808 33.6709V25.3665V17.0621L233.048 16.7937L233.288 16.5253L235.493 16.503C237.585 16.4818 237.712 16.4892 237.968 16.6468C238.321 16.8652 238.397 17.0926 238.397 17.935V18.6355L238.727 18.2183C239.291 17.5044 240.232 16.8624 241.149 16.565C242.237 16.2121 244.38 16.1663 245.547 16.471ZM230.033 16.7939L230.302 17.0626L230.324 25.2166C230.34 31.2242 230.321 33.4309 230.251 33.5995C230.199 33.7253 230.064 33.9009 229.951 33.9898C229.758 34.1413 229.608 34.1513 227.529 34.1513H225.313L225.034 33.8719L224.754 33.5926V25.3443C224.754 17.8566 224.766 17.0784 224.888 16.905C225.16 16.5166 225.378 16.4851 227.65 16.5059L229.765 16.5253L230.033 16.7939Z" fill="#F8F0E3"/>
<path fill-rule="evenodd" clip-rule="evenodd" d="M73.4403 0.0395224C70.3947 0.331371 68.0796 0.979247 65.5495 2.24792C63.5395 3.25576 61.9046 4.45196 60.1785 6.17769C58.3325 8.02341 57.1743 9.64417 56.0701 11.9272C54.7758 14.6032 54.1217 17.266 54.0138 20.2986C53.8892 23.7989 54.6091 27.1302 56.1667 30.2616C57.264 32.4674 58.3914 34.0279 60.1785 35.8147C61.9853 37.6211 63.5531 38.7491 65.765 39.8339C67.3084 40.5908 68.3049 40.9593 69.8695 41.3516C73.975 42.3812 78.0927 42.1838 82.1039 40.7651C83.3198 40.3351 85.4422 39.2715 86.5335 38.5456C89.5295 36.5523 92.0056 33.8001 93.645 30.6407C95.1282 27.7822 95.8704 24.946 95.9862 21.6938C96.1108 18.1935 95.3909 14.8622 93.8333 11.7309C92.8104 9.6747 91.6718 8.06321 90.073 6.40922C88.3002 4.57491 86.5612 3.30936 84.235 2.16018C81.8034 0.959058 79.5379 0.317911 76.847 0.0693145C76.0107 -0.00791528 74.1094 -0.0245759 73.4403 0.0395224ZM81.0604 11.6877C81.6862 11.8975 82.318 12.2601 82.81 12.6921L83.0974 12.9444L83.6662 12.7968C84.3502 12.6194 85.2557 12.266 85.7331 11.9901C85.9263 11.8785 86.082 11.8297 86.082 11.8807C86.082 12.0586 85.6002 12.9248 85.2665 13.3468C85.0812 13.5812 84.7443 13.9113 84.5179 14.0803C84.2915 14.2493 84.1423 14.3996 84.1864 14.4143C84.3148 14.457 85.9218 14.0484 86.3527 13.8634L86.7465 13.6943L86.599 13.9489C86.3929 14.3045 85.0967 15.6646 84.7055 15.9356L84.3815 16.1601L84.3331 17.4086C84.2539 19.4524 83.8044 21.1589 82.837 23.0891C80.8711 27.0112 77.3572 29.6484 73.1676 30.3459C70.0635 30.8626 67.2462 30.4637 64.5337 29.1235C63.0537 28.3923 63.0528 28.4255 64.5536 28.4132C65.6516 28.4043 65.9661 28.3714 66.6339 28.1957C67.9577 27.8474 69.1804 27.289 70.0617 26.6304L70.3361 26.4253L69.9386 26.374C69.3498 26.2979 68.5336 26.0248 68.0225 25.7327C67.4113 25.3835 66.5601 24.5099 66.2463 23.9098C65.7905 23.038 65.7578 23.0891 66.7716 23.0891C67.9693 23.0891 68.1394 23.0103 67.4467 22.7764C67.1539 22.6775 66.7296 22.4891 66.5038 22.3576C65.9282 22.0224 65.0759 21.13 64.7574 20.5291C64.4679 19.9827 64.1643 18.9294 64.1643 18.4711C64.1643 18.2323 64.1867 18.198 64.308 18.2515C64.7146 18.4306 65.5628 18.6844 65.8928 18.7259L66.2668 18.7728L65.645 18.1404C64.6526 17.1313 64.2161 16.0674 64.2237 14.6767C64.2279 13.9104 64.3208 13.4728 64.6248 12.7883L64.8256 12.3363L65.8699 13.3659C67.8309 15.299 70.1791 16.5713 72.7426 17.0896C73.3934 17.2211 74.7346 17.3768 74.7848 17.3266C74.7991 17.3122 74.7785 17.1071 74.739 16.8709C74.5905 15.9842 74.862 14.6731 75.3756 13.797C76.0531 12.641 77.4506 11.6822 78.755 11.4783C79.4385 11.3714 80.3693 11.4559 81.0604 11.6877Z" fill="#F8F0E3"/>
</svg>
